# xmcd CD database file
#
# Track frame offsets:
#	150
#	18385
#	38087
#	54595
#	68640
#	83451
#	103567
#	120619
#	132926
#	146783
#	170298
#
# Disc length: 2508 seconds
#
# Revision: 0
# Processed by: cddbd v1.5.2PL0 Copyright (c) Steve Scherf et al.
# Submitted via: CDex 1.51
#
DISCID=8a09ca0b
DTITLE=Amanda Campbell Coates - Strawberry Wine
DYEAR=2007
DGENRE=Country
TTITLE0=Break Down Here
TTITLE1=Grandpa
TTITLE2=I May Hate Myself In the Morning
TTITLE3=Lucky One
TTITLE4=Mama He's Crazy
TTITLE5=When You Say Nothing At All
TTITLE6=Suds in the Bucket
TTITLE7=I Will Always Love You
TTITLE8=Tennessee Flattop Box
TTITLE9=Traveling Soldier
TTITLE10=Strawberry Wine
EXTD=YEAR: 2007
EXTT0=
EXTT1=
EXTT2=
EXTT3=
EXTT4=
EXTT5=
EXTT6=
EXTT7=
EXTT8=
EXTT9=
EXTT10=
PLAYORDER=
